<?xml version="1.0" encoding="UTF-8" standalone="no"?>
<svg
   xmlns:dc="http://purl.org/dc/elements/1.1/"
   xmlns:cc="http://creativecommons.org/ns#"
   xmlns:rdf="http://www.w3.org/1999/02/22-rdf-syntax-ns#"
   xmlns:svg="http://www.w3.org/2000/svg"
   xmlns="http://www.w3.org/2000/svg"
   xmlns:sodipodi="http://sodipodi.sourceforge.net/DTD/sodipodi-0.dtd"
   xmlns:inkscape="http://www.inkscape.org/namespaces/inkscape"
   viewBox="0 0 0.99999958 0.1866203"
   version="1.1"
   id="svg122"
   sodipodi:docname="kw-logo-optimized.svg"
   inkscape:version="1.0.1 (0767f8302a, 2020-10-17)"
   width="0.99999958"
   height="0.1866203">
  <metadata
     id="metadata128">
    <rdf:RDF>
      <cc:Work
         rdf:about="">
        <dc:format>image/svg+xml</dc:format>
        <dc:type
           rdf:resource="http://purl.org/dc/dcmitype/StillImage" />
      </cc:Work>
    </rdf:RDF>
  </metadata>
  <defs
     id="defs126" />
  <sodipodi:namedview
     pagecolor="#ffffff"
     bordercolor="#666666"
     borderopacity="1"
     objecttolerance="10"
     gridtolerance="10"
     guidetolerance="10"
     inkscape:pageopacity="0"
     inkscape:pageshadow="2"
     inkscape:window-width="1879"
     inkscape:window-height="1025"
     id="namedview124"
     showgrid="false"
     inkscape:zoom="256"
     inkscape:cx="1.5711527"
     inkscape:cy="-0.26419956"
     inkscape:window-x="41"
     inkscape:window-y="27"
     inkscape:window-maximized="1"
     inkscape:current-layer="svg122" />
  <path
     fill="#231f20"
     d="M 0.067706,0 H 0.121891 V 0.1866203 H 0.067706 Z M 0,0.0676051 h 0.1868725 v 0.054084 H 0 Z m 0.2058423,0.051864 v -0.050653 h 0.00605 v 0.050653 z m 0.013672,-0.023258 c -6.559e-4,-4.541e-4 -0.00111,-9.081e-4 -0.00136,-0.00131 -2.523e-4,-4.037e-4 -3.532e-4,-8.073e-4 -3.532e-4,-0.00126 0,-9.586e-4 5.55e-4,-0.00182 0.00172,-0.00262 l 0.034811,-0.023712 0.00328,0.00515 -0.030927,0.02119 0.03239,0.022047 -0.00318,0.00525 z m 0.048888,0.023258 c -0.00197,0 -0.00298,-0.00106 -0.00298,-0.00323 v -0.044246 c 0,-0.00212 0.00101,-0.00318 0.00298,-0.00318 h 0.045053 v 0.00626 h -0.041976 v 0.038141 h 0.042026 v 0.00626 z m 0.036981,-0.024267 v -0.00626 h 0.00636 v 0.00626 z m 0.028404,-0.02013 h -0.00595 v 0.044397 h -0.00605 v -0.047475 c 0,-0.00212 0.00106,-0.00318 0.00313,-0.00318 h 0.01009 c 5.045e-4,0 9.082e-4,1.009e-4 0.00121,2.523e-4 3.531e-4,1.513e-4 6.558e-4,3.531e-4 9.585e-4,6.558e-4 l 0.036527,0.03799 -0.00424,0.00449 z m 0.045961,0.044397 v -0.050653 h 0.00605 v 0.050653 z m 0.081782,0 c -7.063e-4,0 -0.00126,-1.513e-4 -0.00172,-5.045e-4 -4.036e-4,-3.531e-4 -8.072e-4,-8.576e-4 -0.00111,-0.00146 l -0.013773,-0.030725 -0.014833,0.030775 c -6.054e-4,0.00126 -0.00156,0.00192 -0.00277,0.00192 h -0.010494 c -0.00126,0 -0.00217,-6.054e-4 -0.00272,-0.00177 l -0.021896,-0.047626 0.0055,-0.00267 0.021038,0.04581 h 0.00656 l 0.017002,-0.035266 c 7.567e-4,-0.00156 0.00166,-0.00232 0.00277,-0.00232 0.00106,0 0.00197,8.072e-4 0.00272,0.00242 l 0.01569,0.035165 h 0.00636 l 0.022199,-0.045911 0.00545,0.00267 -0.022955,0.047677 c -3.027e-4,6.559e-4 -7.063e-4,0.00111 -0.00111,0.00136 -4.541e-4,2.522e-4 -9.586e-4,4.036e-4 -0.00151,4.036e-4 h -0.010393 z m 0.042531,0 v -0.050653 h 0.0061 v 0.050653 z m 0.019575,0 c -0.00197,0 -0.00298,-0.00106 -0.00298,-0.00323 v -0.047424 h 0.00605 v 0.044397 h 0.039403 v 0.00626 z m 0.052672,0 c -0.00202,0 -0.00308,-0.00106 -0.00308,-0.00323 v -0.044246 c 0,-0.00212 0.00101,-0.00318 0.00308,-0.00318 h 0.035619 c 0.00348,0 0.00641,2.523e-4 0.00878,7.568e-4 0.00237,5.045e-4 0.00424,0.00131 0.0057,0.00242 0.00141,0.00111 0.00242,0.00262 0.00303,0.00449 6.053e-4,0.00187 9.081e-4,0.00414 9.081e-4,0.00686 0,0.00126 -5.05e-5,0.00232 -2.018e-4,0.00323 -1.514e-4,9.082e-4 -3.532e-4,0.00172 -6.559e-4,0.00242 -3.027e-4,7.063e-4 -7.064e-4,0.00136 -0.00121,0.00187 -5.046e-4,5.55e-4 -0.00111,0.00111 -0.00182,0.00166 8.577e-4,4.036e-4 0.00161,8.577e-4 0.00232,0.00141 7.064e-4,5.045e-4 0.00131,0.00126 0.00182,0.00222 5.045e-4,9.586e-4 8.577e-4,0.00212 0.00116,0.00353 3.027e-4,0.00141 4.541e-4,0.00323 4.541e-4,0.00545 0,0.00267 -2.523e-4,0.00489 -7.568e-4,0.00671 -5.045e-4,0.00182 -0.00146,0.00333 -0.00288,0.00444 -0.00141,0.00111 -0.00338,0.00192 -0.0059,0.00242 -0.00252,5.045e-4 -0.0057,7.567e-4 -0.00969,7.567e-4 z m 0.036678,-0.00636 c 0.00293,0 0.00525,-1.514e-4 0.00696,-4.541e-4 0.00172,-3.027e-4 0.00303,-8.072e-4 0.00394,-0.00151 9.081e-4,-7.063e-4 0.00151,-0.00161 0.00182,-0.00277 3.027e-4,-0.00116 4.541e-4,-0.00257 4.541e-4,-0.00434 0,-0.00161 -1.009e-4,-0.00288 -2.523e-4,-0.00378 -2.018e-4,-9.081e-4 -4.54e-4,-0.00161 -8.577e-4,-0.00217 -4.036e-4,-5.045e-4 -9.081e-4,-9.081e-4 -0.00161,-0.00116 -6.559e-4,-2.523e-4 -0.00146,-5.045e-4 -0.00247,-8.072e-4 -9.082e-4,-2.523e-4 -0.00156,-5.045e-4 -0.00202,-9.081e-4 -4.54e-4,-3.532e-4 -6.558e-4,-0.00101 -6.558e-4,-0.00192 0,-8.577e-4 2.018e-4,-0.00146 5.549e-4,-0.00182 3.532e-4,-3.531e-4 8.577e-4,-6.558e-4 0.00141,-9.081e-4 8.072e-4,-4.036e-4 0.00146,-8.072e-4 0.00197,-0.00111 5.549e-4,-3.532e-4 9.585e-4,-7.568e-4 0.00121,-0.00126 3.027e-4,-5.045e-4 5.045e-4,-0.00106 6.054e-4,-0.00172 1.009e-4,-6.558e-4 1.514e-4,-0.00156 1.514e-4,-0.00262 0,-0.00187 -1.514e-4,-0.00338 -5.046e-4,-0.00459 -3.531e-4,-0.00121 -9.585e-4,-0.00207 -0.00192,-0.00267 -9.081e-4,-6.054e-4 -0.00217,-0.00101 -0.00378,-0.00126 -0.00161,-2.018e-4 -0.00363,-3.028e-4 -0.00616,-3.028e-4 h -0.032541 v 0.038091 z m 0.031078,0.00636 c -0.00197,0 -0.00298,-0.00106 -0.00298,-0.00323 v -0.044246 c 0,-0.00212 0.00101,-0.00318 0.00298,-0.00318 h 0.045053 v 0.00626 h -0.042026 v 0.038141 h 0.042026 v 0.00626 z m 0.036981,-0.024267 v -0.00626 h 0.00636 v 0.00626 z m 0.068513,0.024267 V 0.109278 c 0,-0.00156 -5.04e-5,-0.00277 -1.513e-4,-0.00363 -1.009e-4,-8.576e-4 -3.027e-4,-0.00156 -7.063e-4,-0.00207 -3.532e-4,-5.045e-4 -9.082e-4,-8.577e-4 -0.00161,-0.00111 -7.063e-4,-2.523e-4 -0.00166,-5.55e-4 -0.00288,-8.577e-4 -0.00131,-3.532e-4 -0.00197,-0.00126 -0.00197,-0.00262 0,-6.054e-4 1.514e-4,-0.00111 4.036e-4,-0.00161 2.522e-4,-5.046e-4 7.063e-4,-8.577e-4 0.00131,-0.00106 0.00146,-4.541e-4 0.00262,-8.577e-4 0.00343,-0.00121 8.072e-4,-3.532e-4 0.00146,-8.073e-4 0.00192,-0.00136 4.54e-4,-5.55e-4 7.063e-4,-0.00126 8.072e-4,-0.00217 1.009e-4,-9.081e-4 1.514e-4,-0.00212 1.514e-4,-0.00373 0,-0.00298 -2.018e-4,-0.0053 -5.55e-4,-0.00701 -3.531e-4,-0.00172 -0.00111,-0.00298 -0.00227,-0.00383 -0.00116,-8.577e-4 -0.00288,-0.00141 -0.0051,-0.00161 -0.00222,-2.018e-4 -0.00525,-3.027e-4 -0.00898,-3.027e-4 h -0.029817 v 0.044397 h -0.0061 v -0.047475 c 0,-0.00212 0.00106,-0.00318 0.00313,-0.00318 h 0.032087 c 0.00494,0 0.00898,2.523e-4 0.012108,7.063e-4 0.00308,5.045e-4 0.0055,0.00136 0.00721,0.00262 0.00172,0.00126 0.00288,0.00298 0.00348,0.00515 6.054e-4,0.00217 9.081e-4,0.00494 9.081e-4,0.00827 0,0.00227 -1.009e-4,0.00419 -3.532e-4,0.00565 -2.018e-4,0.00151 -5.549e-4,0.00272 -9.081e-4,0.00373 -4.036e-4,0.00101 -9.081e-4,0.00177 -0.00151,0.00242 -6.054e-4,6.054e-4 -0.00131,0.00121 -0.00212,0.00177 5.55e-4,4.036e-4 0.00106,8.577e-4 0.00151,0.00141 5.045e-4,5.045e-4 9.081e-4,0.00116 0.00131,0.00187 4.036e-4,7.568e-4 7.063e-4,0.00156 9.081e-4,0.00252 2.018e-4,9.586e-4 3.532e-4,0.00212 3.532e-4,0.00348 v 0.010998 h -0.006 z m 0.016851,0 v -0.00802 h 0.0061 v 0.00802 z m 0.072348,-0.016245 c 0,0.00217 -1.009e-4,0.00409 -2.523e-4,0.00575 -2.018e-4,0.00172 -5.55e-4,0.00318 -0.00121,0.00444 -6.055e-4,0.00126 -0.00151,0.00232 -0.00272,0.00318 -0.00121,8.577e-4 -0.00277,0.00156 -0.00479,0.00212 -0.00197,5.045e-4 -0.00449,9.081e-4 -0.00742,0.00111 -0.00298,2.523e-4 -0.00651,3.532e-4 -0.010645,3.532e-4 H 0.80708 c -0.00419,0 -0.00772,-1.009e-4 -0.010645,-3.532e-4 -0.00293,-2.522e-4 -0.00545,-6.054e-4 -0.00742,-0.00111 -0.00202,-5.045e-4 -0.00363,-0.00126 -0.00479,-0.00217 -0.00116,-9.082e-4 -0.00207,-0.00207 -0.00272,-0.00343 -6.559e-4,-0.00136 -0.00106,-0.00303 -0.00121,-0.00494 -2.019e-4,-0.00192 -2.523e-4,-0.00414 -2.523e-4,-0.00666 v -0.014681 c 0,-0.00252 1.009e-4,-0.00474 2.523e-4,-0.00666 1.513e-4,-0.00192 6.054e-4,-0.00358 0.00121,-0.00494 6.559e-4,-0.00136 0.00156,-0.00252 0.00272,-0.00343 0.00116,-9.081e-4 0.00277,-0.00161 0.00479,-0.00217 0.00202,-5.045e-4 0.00449,-9.081e-4 0.00742,-0.00111 0.00293,-2.523e-4 0.00651,-3.532e-4 0.010645,-3.532e-4 h 0.00464 c 0.00414,0 0.00767,1.009e-4 0.010645,3.532e-4 0.00298,2.522e-4 0.00545,6.054e-4 0.00742,0.00111 0.00202,5.045e-4 0.00358,0.00126 0.00479,0.00217 0.00121,9.082e-4 0.00212,0.00207 0.00272,0.00343 6.054e-4,0.00136 0.00101,0.00303 0.00121,0.00494 1.514e-4,0.00192 2.523e-4,0.00414 2.523e-4,0.00666 v 8.072e-4 h -0.00605 v -8.072e-4 c 0,-0.00272 -1.514e-4,-0.00494 -4.541e-4,-0.00656 -3.027e-4,-0.00161 -0.00111,-0.00288 -0.00247,-0.00373 -0.00136,-8.577e-4 -0.00343,-0.00141 -0.00626,-0.00166 -0.00283,-2.523e-4 -0.00676,-4.036e-4 -0.011806,-4.036e-4 h -0.00464 c -0.00343,0 -0.00631,5.05e-5 -0.00863,1.513e-4 -0.00237,1.009e-4 -0.00429,3.027e-4 -0.00585,6.054e-4 -0.00156,3.028e-4 -0.00277,7.568e-4 -0.00363,0.00131 -9.081e-4,5.549e-4 -0.00156,0.00131 -0.00197,0.00222 -4.541e-4,9.081e-4 -7.063e-4,0.00202 -8.072e-4,0.00333 -1.009e-4,0.00131 -1.514e-4,0.00288 -1.514e-4,0.00469 v 0.014681 c 0,0.00177 5.05e-5,0.00333 1.514e-4,0.00469 1.009e-4,0.00131 3.531e-4,0.00247 8.072e-4,0.00338 4.541e-4,9.081e-4 0.00111,0.00166 0.00197,0.00222 9.081e-4,5.549e-4 0.00212,0.00101 0.00363,0.00131 0.00156,3.027e-4 0.00348,5.045e-4 0.00585,6.054e-4 0.00237,1.009e-4 0.00525,1.514e-4 0.00863,1.514e-4 h 0.00464 c 0.00505,0 0.00898,-1.009e-4 0.011806,-3.532e-4 0.00283,-2.523e-4 0.00494,-7.567e-4 0.00626,-0.00156 0.00136,-7.568e-4 0.00217,-0.00187 0.00247,-0.00323 3.027e-4,-0.00136 4.541e-4,-0.00323 4.541e-4,-0.0055 V 0.102424 h 0.00605 z m 0.035013,0.017002 c -0.00419,0 -0.00772,-1.009e-4 -0.010645,-3.531e-4 -0.00293,-2.523e-4 -0.00545,-6.055e-4 -0.00742,-0.00111 -0.00202,-5.045e-4 -0.00363,-0.00126 -0.00479,-0.00217 -0.00116,-9.081e-4 -0.00207,-0.00207 -0.00272,-0.00343 -6.559e-4,-0.00136 -0.00106,-0.00303 -0.00121,-0.00494 C 0.8467835,0.106303 0.846733,0.104083 0.846733,0.101563 V 0.086882 c 0,-0.00252 1.009e-4,-0.00474 2.523e-4,-0.00666 1.513e-4,-0.00192 6.054e-4,-0.00358 0.00121,-0.00494 6.559e-4,-0.00136 0.00156,-0.00252 0.00272,-0.00343 0.00116,-9.081e-4 0.00277,-0.00161 0.00479,-0.00217 0.00202,-5.045e-4 0.00449,-9.082e-4 0.00742,-0.00111 0.00293,-2.522e-4 0.00651,-3.531e-4 0.010645,-3.531e-4 h 0.00948 c 0.00414,0 0.00767,1.009e-4 0.010645,3.531e-4 0.00298,2.523e-4 0.00545,6.055e-4 0.00742,0.00111 0.00197,5.045e-4 0.00358,0.00126 0.00479,0.00217 0.00121,9.081e-4 0.00212,0.00207 0.00272,0.00343 6.054e-4,0.00136 0.00101,0.00303 0.00121,0.00494 1.514e-4,0.00192 2.523e-4,0.00414 2.523e-4,0.00666 v 0.014681 c 0,0.00252 -1.009e-4,0.00474 -2.523e-4,0.00666 -2.018e-4,0.00192 -5.549e-4,0.00358 -0.00121,0.00494 -6.054e-4,0.00136 -0.00151,0.00252 -0.00272,0.00343 -0.00121,9.081e-4 -0.00277,0.00161 -0.00479,0.00217 -0.00197,5.045e-4 -0.00449,9.081e-4 -0.00742,0.00111 -0.00298,2.522e-4 -0.00651,3.531e-4 -0.010645,3.531e-4 z m 0.030523,-0.033399 c 0,-0.00272 -1.513e-4,-0.00494 -4.54e-4,-0.00656 -3.028e-4,-0.00161 -0.00111,-0.00288 -0.00247,-0.00373 -0.00136,-8.577e-4 -0.00343,-0.00141 -0.00626,-0.00166 -0.00283,-2.523e-4 -0.00676,-4.036e-4 -0.011806,-4.036e-4 h -0.00948 c -0.00343,0 -0.00631,5.05e-5 -0.00863,1.513e-4 -0.00237,1.009e-4 -0.00429,3.027e-4 -0.00585,6.054e-4 -0.00156,3.028e-4 -0.00277,7.568e-4 -0.00363,0.00131 -9.081e-4,5.549e-4 -0.00156,0.00131 -0.00197,0.00222 -4.541e-4,9.081e-4 -7.063e-4,0.00202 -8.072e-4,0.00333 -1.01e-4,0.00131 -1.514e-4,0.00288 -1.514e-4,0.00469 v 0.014681 c 0,0.00177 5.04e-5,0.00333 1.514e-4,0.00469 1.009e-4,0.00131 3.531e-4,0.00247 8.072e-4,0.00338 4.541e-4,9.081e-4 0.00111,0.00166 0.00197,0.00222 9.081e-4,5.549e-4 0.00212,0.00101 0.00363,0.00131 0.00156,3.027e-4 0.00348,5.045e-4 0.00585,6.054e-4 0.00237,1.009e-4 0.00525,1.514e-4 0.00863,1.514e-4 h 0.00948 c 0.00505,0 0.00898,-1.514e-4 0.011806,-4.036e-4 0.00283,-2.523e-4 0.00494,-8.577e-4 0.00626,-0.00172 0.00136,-8.577e-4 0.00217,-0.00212 0.00247,-0.00373 3.027e-4,-0.00161 4.54e-4,-0.00378 4.54e-4,-0.00651 z m 0.089552,0.032642 v -0.044397 h -0.00762 l -0.02356,0.038898 c -8.072e-4,0.00126 -0.00166,0.00187 -0.00257,0.00187 -9.081e-4,0 -0.00182,-6.054e-4 -0.00257,-0.00187 L 0.933404,0.0750719 h -0.00752 v 0.044397 h -0.00605 v -0.047475 c 0,-0.00212 0.00106,-0.00318 0.00313,-0.00318 h 0.012209 c 0.00106,0 0.00192,5.045e-4 0.00252,0.00146 l 0.022401,0.036123 0.021997,-0.036073 c 2.523e-4,-4.54e-4 6.054e-4,-8.072e-4 9.586e-4,-0.00111 3.532e-4,-2.523e-4 9.081e-4,-4.036e-4 0.00156,-4.036e-4 h 0.01231 c 0.00202,0 0.00308,0.00106 0.00308,0.00318 v 0.047475 z"
     id="path120"
     style="stroke-width:0.000504516" />
</svg>
