<?xml version="1.0" encoding="utf-8"?>
<!-- Generator: Adobe Illustrator 18.0.0, SVG Export Plug-In . SVG Version: 6.00 Build 0)  -->
<!DOCTYPE svg PUBLIC "-//W3C//DTD SVG 1.1//EN" "http://www.w3.org/Graphics/SVG/1.1/DTD/svg11.dtd">
<svg version="1.1" id="Layer_1" xmlns="http://www.w3.org/2000/svg" xmlns:xlink="http://www.w3.org/1999/xlink" x="0px" y="0px"
	 viewBox="0 0 2000 380" enable-background="new 0 0 2000 380" xml:space="preserve">
<rect x="139.6" y="6.4" fill="#555555" width="107.4" height="369.9"/>
<rect x="5.4" y="140.4" fill="#555555" width="370.4" height="107.2"/>
<g>
	<path fill="#555555" d="M413.4,243.2V142.8h12v100.4H413.4z M440.5,197.1c-1.3-0.9-2.2-1.8-2.7-2.6c-0.5-0.8-0.7-1.6-0.7-2.5
		c0-1.9,1.1-3.6,3.4-5.2l69-47l6.5,10.2L454.7,192l64.2,43.7l-6.3,10.4L440.5,197.1z"/>
	<path fill="#555555" d="M537.4,243.2c-3.9,0-5.9-2.1-5.9-6.4v-87.7c0-4.2,2-6.3,5.9-6.3h89.3v12.4h-83.2v75.6h83.3v12.4H537.4z
		 M610.7,195.1v-12.4h12.6v12.4H610.7z"/>
	<path fill="#555555" d="M667,155.2h-11.8v88h-12v-94.1c0-4.2,2.1-6.3,6.2-6.3h20c1,0,1.8,0.2,2.4,0.5c0.7,0.3,1.3,0.7,1.9,1.3
		l72.4,75.3l-8.4,8.9L667,155.2z M758.1,243.2V142.8h12v100.4H758.1z"/>
	<path fill="#555555" d="M920.2,243.2c-1.4,0-2.5-0.3-3.4-1c-0.8-0.7-1.6-1.7-2.2-2.9l-27.3-60.9l-29.4,61c-1.2,2.5-3.1,3.8-5.5,3.8
		h-20.8c-2.5,0-4.3-1.2-5.4-3.5l-43.4-94.4l10.9-5.3l41.7,90.8h13l33.7-69.9c1.5-3.1,3.3-4.6,5.5-4.6c2.1,0,3.9,1.6,5.4,4.8
		l31.1,69.7h12.6l44-91l10.8,5.3L946,239.6c-0.6,1.3-1.4,2.2-2.2,2.7c-0.9,0.5-1.9,0.8-3,0.8H920.2z"/>
	<path fill="#555555" d="M1004.5,243.2V142.8h12.1v100.4H1004.5z"/>
	<path fill="#555555" d="M1043.3,243.2c-3.9,0-5.9-2.1-5.9-6.4v-94h12v88h78.1v12.4H1043.3z"/>
	<path fill="#555555" d="M1147.7,243.2c-4,0-6.1-2.1-6.1-6.4v-87.7c0-4.2,2-6.3,6.1-6.3h70.6c6.9,0,12.7,0.5,17.4,1.5
		c4.7,1,8.4,2.6,11.3,4.8c2.8,2.2,4.8,5.2,6,8.9c1.2,3.7,1.8,8.2,1.8,13.6c0,2.5-0.1,4.6-0.4,6.4c-0.3,1.8-0.7,3.4-1.3,4.8
		c-0.6,1.4-1.4,2.7-2.4,3.7c-1,1.1-2.2,2.2-3.6,3.3c1.7,0.8,3.2,1.7,4.6,2.8c1.4,1,2.6,2.5,3.6,4.4c1,1.9,1.7,4.2,2.3,7
		c0.6,2.8,0.9,6.4,0.9,10.8c0,5.3-0.5,9.7-1.5,13.3c-1,3.6-2.9,6.6-5.7,8.8c-2.8,2.2-6.7,3.8-11.7,4.8c-5,1-11.3,1.5-19.2,1.5
		H1147.7z M1220.4,230.6c5.8,0,10.4-0.3,13.8-0.9c3.4-0.6,6-1.6,7.8-3c1.8-1.4,3-3.2,3.6-5.5c0.6-2.3,0.9-5.1,0.9-8.6
		c0-3.2-0.2-5.7-0.5-7.5c-0.4-1.8-0.9-3.2-1.7-4.3c-0.8-1-1.8-1.8-3.2-2.3c-1.3-0.5-2.9-1-4.9-1.6c-1.8-0.5-3.1-1-4-1.8
		c-0.9-0.7-1.3-2-1.3-3.8c0-1.7,0.4-2.9,1.1-3.6c0.7-0.7,1.7-1.3,2.8-1.8c1.6-0.8,2.9-1.6,3.9-2.2c1.1-0.7,1.9-1.5,2.4-2.5
		c0.6-1,1-2.1,1.2-3.4c0.2-1.3,0.3-3.1,0.3-5.2c0-3.7-0.3-6.7-1-9.1s-1.9-4.1-3.8-5.3c-1.8-1.2-4.3-2-7.5-2.5
		c-3.2-0.4-7.2-0.6-12.2-0.6h-64.5v75.5H1220.4z"/>
	<path fill="#555555" d="M1282,243.2c-3.9,0-5.9-2.1-5.9-6.4v-87.7c0-4.2,2-6.3,5.9-6.3h89.3v12.4H1288v75.6h83.3v12.4H1282z
		 M1355.3,195.1v-12.4h12.6v12.4H1355.3z"/>
	<path fill="#555555" d="M1491.1,243.2V223c0-3.1-0.1-5.5-0.3-7.2c-0.2-1.7-0.6-3.1-1.4-4.1c-0.7-1-1.8-1.7-3.2-2.2
		c-1.4-0.5-3.3-1.1-5.7-1.7c-2.6-0.7-3.9-2.5-3.9-5.2c0-1.2,0.3-2.2,0.8-3.2c0.5-1,1.4-1.7,2.6-2.1c2.9-0.9,5.2-1.7,6.8-2.4
		c1.6-0.7,2.9-1.6,3.8-2.7c0.9-1.1,1.4-2.5,1.6-4.3c0.2-1.8,0.3-4.2,0.3-7.4c0-5.9-0.4-10.5-1.1-13.9c-0.7-3.4-2.2-5.9-4.5-7.6
		c-2.3-1.7-5.7-2.8-10.1-3.2c-4.4-0.4-10.4-0.6-17.8-0.6h-59.1v88h-12.1v-94.1c0-4.2,2.1-6.3,6.2-6.3h63.6c9.8,0,17.8,0.5,24,1.4
		c6.1,1,10.9,2.7,14.3,5.2c3.4,2.5,5.7,5.9,6.9,10.2c1.2,4.3,1.8,9.8,1.8,16.4c0,4.5-0.2,8.3-0.7,11.2c-0.4,3-1.1,5.4-1.8,7.4
		c-0.8,2-1.8,3.5-3,4.8c-1.2,1.2-2.6,2.4-4.2,3.5c1.1,0.8,2.1,1.7,3,2.8c1,1,1.8,2.3,2.6,3.7c0.8,1.5,1.4,3.1,1.8,5
		c0.4,1.9,0.7,4.2,0.7,6.9v21.8H1491.1z"/>
	<path fill="#555555" d="M1524.5,243.2v-15.9h12.1v15.9H1524.5z"/>
	<path fill="#555555" d="M1667.9,211c0,4.3-0.2,8.1-0.5,11.4c-0.4,3.4-1.1,6.3-2.4,8.8c-1.2,2.5-3,4.6-5.4,6.3
		c-2.4,1.7-5.5,3.1-9.5,4.2c-3.9,1-8.9,1.8-14.7,2.2c-5.9,0.5-12.9,0.7-21.1,0.7h-9.2c-8.3,0-15.3-0.2-21.1-0.7
		c-5.8-0.5-10.8-1.2-14.7-2.2c-4-1-7.2-2.5-9.5-4.3c-2.3-1.8-4.1-4.1-5.4-6.8c-1.3-2.7-2.1-6-2.4-9.8c-0.4-3.8-0.5-8.2-0.5-13.2
		v-29.1c0-5,0.2-9.4,0.5-13.2c0.3-3.8,1.2-7.1,2.4-9.8c1.3-2.7,3.1-5,5.4-6.8c2.3-1.8,5.5-3.2,9.5-4.3c4-1,8.9-1.8,14.7-2.2
		c5.8-0.5,12.9-0.7,21.1-0.7h9.2c8.2,0,15.2,0.2,21.1,0.7c5.9,0.5,10.8,1.2,14.7,2.2c4,1,7.1,2.5,9.5,4.3c2.4,1.8,4.2,4.1,5.4,6.8
		c1.2,2.7,2,6,2.4,9.8c0.3,3.8,0.5,8.2,0.5,13.2v1.6h-12v-1.6c0-5.4-0.3-9.8-0.9-13c-0.6-3.2-2.2-5.7-4.9-7.4
		c-2.7-1.7-6.8-2.8-12.4-3.3c-5.6-0.5-13.4-0.8-23.4-0.8h-9.2c-6.8,0-12.5,0.1-17.1,0.3c-4.7,0.2-8.5,0.6-11.6,1.2
		c-3.1,0.6-5.5,1.5-7.2,2.6c-1.8,1.1-3.1,2.6-3.9,4.4c-0.9,1.8-1.4,4-1.6,6.6c-0.2,2.6-0.3,5.7-0.3,9.3v29.1c0,3.5,0.1,6.6,0.3,9.3
		c0.2,2.6,0.7,4.9,1.6,6.7c0.9,1.8,2.2,3.3,3.9,4.4c1.8,1.1,4.2,2,7.2,2.6c3.1,0.6,6.9,1,11.6,1.2c4.7,0.2,10.4,0.3,17.1,0.3h9.2
		c10,0,17.8-0.2,23.4-0.7c5.6-0.5,9.8-1.5,12.4-3.1c2.7-1.5,4.3-3.7,4.9-6.4c0.6-2.7,0.9-6.4,0.9-10.9v-1.5h12V211z"/>
	<path fill="#555555" d="M1737.3,244.7c-8.3,0-15.3-0.2-21.1-0.7c-5.8-0.5-10.8-1.2-14.7-2.2c-4-1-7.2-2.5-9.5-4.3
		c-2.3-1.8-4.1-4.1-5.4-6.8c-1.3-2.7-2.1-6-2.4-9.8c-0.4-3.8-0.5-8.2-0.5-13.2v-29.1c0-5,0.2-9.4,0.5-13.2c0.3-3.8,1.2-7.1,2.4-9.8
		c1.3-2.7,3.1-5,5.4-6.8c2.3-1.8,5.5-3.2,9.5-4.3c4-1,8.9-1.8,14.7-2.2c5.8-0.5,12.9-0.7,21.1-0.7h18.8c8.2,0,15.2,0.2,21.1,0.7
		c5.9,0.5,10.8,1.2,14.7,2.2c3.9,1,7.1,2.5,9.5,4.3c2.4,1.8,4.2,4.1,5.4,6.8c1.2,2.7,2,6,2.4,9.8c0.3,3.8,0.5,8.2,0.5,13.2v29.1
		c0,5-0.2,9.4-0.5,13.2c-0.4,3.8-1.1,7.1-2.4,9.8c-1.2,2.7-3,5-5.4,6.8c-2.4,1.8-5.5,3.2-9.5,4.3c-3.9,1-8.9,1.8-14.7,2.2
		c-5.9,0.5-12.9,0.7-21.1,0.7H1737.3z M1797.8,178.5c0-5.4-0.3-9.8-0.9-13c-0.6-3.2-2.2-5.7-4.9-7.4c-2.7-1.7-6.8-2.8-12.4-3.3
		c-5.6-0.5-13.4-0.8-23.4-0.8h-18.8c-6.8,0-12.5,0.1-17.1,0.3c-4.7,0.2-8.5,0.6-11.6,1.2c-3.1,0.6-5.5,1.5-7.2,2.6
		c-1.8,1.1-3.1,2.6-3.9,4.4c-0.9,1.8-1.4,4-1.6,6.6c-0.2,2.6-0.3,5.7-0.3,9.3v29.1c0,3.5,0.1,6.6,0.3,9.3c0.2,2.6,0.7,4.9,1.6,6.7
		c0.9,1.8,2.2,3.3,3.9,4.4c1.8,1.1,4.2,2,7.2,2.6c3.1,0.6,6.9,1,11.6,1.2c4.7,0.2,10.4,0.3,17.1,0.3h18.8c10,0,17.8-0.3,23.4-0.8
		c5.6-0.5,9.8-1.7,12.4-3.4c2.7-1.7,4.3-4.2,4.9-7.4c0.6-3.2,0.9-7.5,0.9-12.9V178.5z"/>
	<path fill="#555555" d="M1975.3,243.2v-88h-15.1l-46.7,77.1c-1.6,2.5-3.3,3.7-5.1,3.7c-1.8,0-3.6-1.2-5.1-3.7l-47.8-77.1h-14.9v88
		h-12v-94.1c0-4.2,2.1-6.3,6.2-6.3h24.2c2.1,0,3.8,1,5,2.9l44.4,71.6l43.6-71.5c0.5-0.9,1.2-1.6,1.9-2.2c0.7-0.5,1.8-0.8,3.1-0.8
		h24.4c4,0,6.1,2.1,6.1,6.3v94.1H1975.3z"/>
</g>
</svg>
